<?xml version="1.0" encoding="UTF-8"?>
<svg width="100%" height="100%" viewBox="0 0 25788 3588" version="1.1" xmlns="http://www.w3.org/2000/svg" xmlns:xlink="http://www.w3.org/1999/xlink">
    <!-- Generator: Sketch 43.2 (39069) - http://www.bohemiancoding.com/sketch -->
    <title>MONDO</title>
    <desc>Created with Sketch.</desc>
    <defs></defs>
    <g id="Page-1" stroke="none" stroke-width="1" fill="none" fill-rule="evenodd">
        <g id="Artboard" transform="translate(-533.000000, -3845.000000)" fill="#000000">
            <path d="M533,7342.81608 L1750.55036,7342.81608 L1750.55036,4780.29729 L1764.70792,4780.29729 L2642.47679,7342.81608 L4029.9179,7342.81608 L4964.31701,4780.29729 L4973.75539,4780.29729 L4973.75539,7342.81608 L6304.56625,7342.81608 L6304.56625,3935.56274 L4119.58246,3935.56274 L3430.58109,6219.64946 L3421.14272,6219.64946 L2708.54541,3935.56274 L533,3935.56274 L533,7342.81608 Z M11364.1251,5639.18941 C11364.1251,6163.01921 11203.6728,6573.58852 10920.5215,6842.58221 C10552.4249,7196.52127 9962.52647,7432.48064 9084.7576,7432.48064 C7418.88443,7432.48064 6805.39006,6658.5339 6805.39006,5639.18941 C6805.39006,4978.50317 7069.66456,4501.86523 7461.35712,4223.43317 C7786.98105,3992.19299 8206.98874,3845.89818 9084.7576,3845.89818 C10750.6308,3845.89818 11364.1251,4619.84492 11364.1251,5639.18941 Z M9901.17703,5639.18941 C9901.17703,4940.74967 9556.67635,4619.84492 9084.7576,4619.84492 C8612.83886,4619.84492 8268.33817,4940.74967 8268.33817,5639.18941 C8268.33817,6337.62915 8612.83886,6658.5339 9084.7576,6658.5339 C9556.67635,6658.5339 9901.17703,6337.62915 9901.17703,5639.18941 Z M11855.5106,7342.81608 L13101.3761,7342.81608 L13101.3761,4917.15373 L13110.8144,4917.15373 L14328.3648,7342.81608 L16362.3346,7342.81608 L16362.3346,3935.56274 L15116.4691,3935.56274 L15116.4691,6219.64946 L15102.3115,6219.64946 L13955.549,3935.56274 L11855.5106,3935.56274 L11855.5106,7342.81608 Z M18481.8397,4709.50948 L18481.8397,6568.86934 L18878.2514,6568.86934 C19529.4993,6568.86934 19921.1919,6276.27971 19921.1919,5639.18941 C19921.1919,5002.0991 19529.4993,4709.50948 18878.2514,4709.50948 L18481.8397,4709.50948 Z M17047.2067,7342.81608 L17047.2067,3935.56274 L18873.5323,3935.56274 C19878.7192,3935.56274 20529.9671,4025.2273 20997.1666,4497.14605 C21242.5644,4747.26298 21412.4551,5157.83229 21412.4551,5667.50453 C21412.4551,6167.7384 21247.2835,6653.81471 20949.9747,6889.77408 C20548.8438,7210.67883 20171.3088,7342.81608 19118.93,7342.81608 L17047.2067,7342.81608 Z M26321,5639.18941 C26321,6163.01921 26160.5476,6573.58852 25877.3964,6842.58221 C25509.2998,7196.52127 24919.4013,7432.48064 24041.6325,7432.48064 C22375.7593,7432.48064 21762.2649,6658.5339 21762.2649,5639.18941 C21762.2649,4978.50317 22026.5394,4501.86523 22418.232,4223.43317 C22743.8559,3992.19299 23163.8636,3845.89818 24041.6325,3845.89818 C25707.5056,3845.89818 26321,4619.84492 26321,5639.18941 Z M24858.0519,5639.18941 C24858.0519,4940.74967 24513.5512,4619.84492 24041.6325,4619.84492 C23569.7137,4619.84492 23225.213,4940.74967 23225.213,5639.18941 C23225.213,6337.62915 23569.7137,6658.5339 24041.6325,6658.5339 C24513.5512,6658.5339 24858.0519,6337.62915 24858.0519,5639.18941 Z" id="MONDO"></path>
        </g>
    </g>
</svg>